<svg class="cita" viewBox="0 0 2411 1212" version="1.1" xmlns="http://www.w3.org/2000/svg" xmlns:xlink="http://www.w3.org/1999/xlink">
  <g stroke="none" stroke-width="1" fill="none" fill-rule="evenodd">
    <g class="cita__word" transform="translate(5.000000, 5.000000)" stroke="#C1177A" stroke-width="10">
      <path d="M406.009756,403 C134.009756,403 -1.32357724,535.666667 0.00975609756,801 C1.34308943,1066.33333 136.676423,1200 406.009756,1202"
        stroke-linecap="round" stroke-linejoin="round"></path>
      <g transform="translate(500.000000, 0.000000)" stroke-linecap="round" stroke-linejoin="round">
        <path d="M303,602 L303,1202"></path>
        <path d="M2.27373675e-13,199 C4.66666667,323.666667 105.333333,391.333333 302,402 C514,402 613.333333,335.333333 600,202 C582.666667,68.6666667 483.333333,2 302,2 C117.333333,-12 16.6666667,53.6666667 2.27373675e-13,199 Z"></path>
      </g>
      <g transform="translate(1200.000000, 400.000000)" stroke-linecap="round" stroke-linejoin="round">
        <path d="M0,1 L600,1"></path>
        <path d="M300,802 L300,2"></path>
      </g>
      <g transform="translate(1999.000000, 403.000000)">
        <path d="M1,797 C0.79595113,634.5771 0.79595113,435.910433 1,201 C1,69 67.6641237,2.33333333 200.992371,1 C334.320618,-0.333333333 400.989828,66.3333333 401,201 C401.183705,452.104362 401.183705,650.771029 401,797"
          stroke-linecap="round" stroke-linejoin="round"></path>
        <path d="M1,458 L401,458"></path>
      </g>
    </g>
  </g>
</svg>
