<svg class="cita" viewBox="0 0 3060 1182" version="1.1" xmlns="http://www.w3.org/2000/svg" xmlns:xlink="http://www.w3.org/1999/xlink">
    <g class="cita__word" stroke-width="10" fill="#1e90ff" fill-rule="evenodd" stroke="#000000" transform="translate(10.000000, 1.000000)">
        <path class="cita__letter cita__letter-c" d="M434.835074,677.436169 C478.260051,677.436169 823.374344,655.723681 823.374344,448.883658 C823.374344,242.043635 530.827129,189.476557 411.979823,197.475895 C293.132517,205.475233 15.441216,348.320553 0.585302778,677.436169 C-15.3650502,1030.79784 298.84633,1180.25169 434.835074,1180.25169 C570.823819,1180.25169 823.374344,1134.54119 823.374344,905.98868 C823.374344,677.436169 391.410097,677.436169 434.835074,677.436169 Z"></path>
        <path class="cita__letter cita__letter-i" d="M1232.04463,1179.0505 C1220.88843,1179.0505 1037.31809,1208.46232 1008.92047,976.210352 C980.522853,743.958386 1077.88612,554.30285 1191.4766,529.962033 C1305.06709,505.621215 1404.45876,683.106342 1414.60076,895.074294 C1427.1608,1157.57905 1243.20084,1179.0505 1232.04463,1179.0505 Z M826.364343,205.417801 C844.036634,95.1427053 957.196237,12.7196626 1097.15594,1.56345459 C1237.11564,-9.5927534 1468.3534,38.0746807 1501.82203,172.963377 C1535.29065,307.852074 1412.57236,429.556161 1211.76062,447.811774 C1010.94888,466.067387 801.009325,363.633114 826.364343,205.417801 Z"></path>
        <path class="cita__letter cita__letter-t" d="M1750.6761,608.132462 C1685.40075,782.200058 1653.40303,896.111941 1654.68294,949.868111 C1656.6028,1030.50236 1713.23876,1180.25169 1846.66926,1180.25169 C1980.09975,1180.25169 2038.65558,1042.02154 2038.65558,949.868111 C2038.65558,888.432488 2006.65786,774.520606 1942.66242,608.132462 C2199.28413,705.40553 2305.51656,645.249817 2261.35971,427.665322 C2195.12443,101.288578 1586.52779,138.725911 1520.29251,427.665322 C1476.13566,620.291595 1552.93019,680.447309 1750.6761,608.132462 Z"></path>
        <path class="cita__letter cita__letter-a" d="M2666.6774,880.99537 C2635.54458,1080.49959 2572.0082,1180.25169 2476.06828,1180.25169 C2332.15839,1180.25169 2233.63631,952.276833 2286.4122,766.629896 C2394.42404,386.682376 2521.1791,196.708616 2666.6774,196.708616 C2913.8339,206.239072 3040.58897,396.212832 3046.9426,766.629896 C3050.63156,981.696049 3046.9426,1180.25169 2858.23957,1180.25169 C2732.43755,1180.25169 2668.58349,1080.49959 2666.6774,880.99537 Z M2669.53654,597.940821 C2650.47563,596.987776 2602.82335,619.86087 2602.82335,697.057565 C2602.82335,774.254261 2737.20278,790.456036 2748.63932,697.057565 C2760.07587,603.659095 2688.59745,598.893867 2669.53654,597.940821 Z"></path>
    </g>
</svg>