<?xml version="1.0" standalone="no"?>
<!DOCTYPE svg PUBLIC "-//W3C//DTD SVG 20010904//EN"
 "http://www.w3.org/TR/2001/REC-SVG-20010904/DTD/svg10.dtd">
<svg version="1.0" xmlns="http://www.w3.org/2000/svg"
 width="3060.000000pt" height="3060.000000pt" viewBox="0 0 3060.000000 3060.000000"
 preserveAspectRatio="xMidYMid meet">
<metadata>
Created by potrace 1.11, written by Peter Selinger 2001-2013
</metadata>
<g transform="translate(0.000000,3060.000000) scale(0.100000,-0.100000)"
fill="#000000" stroke="none">
<path d="M10770 21200 c-19 -5 -51 -11 -70 -14 -19 -3 -45 -8 -56 -10 -12 -2
-38 -7 -59 -10 -21 -4 -106 -24 -189 -46 -1090 -284 -1871 -990 -2062 -1865
-42 -192 -50 -448 -20 -622 3 -18 8 -46 11 -61 11 -63 58 -212 96 -301 66
-154 158 -305 273 -446 41 -51 227 -240 281 -285 119 -101 334 -251 460 -321
189 -106 434 -216 650 -292 86 -30 260 -86 290 -93 6 -1 64 -16 130 -32 123
-31 256 -59 312 -66 18 -3 40 -7 50 -10 10 -2 38 -7 63 -10 25 -3 54 -8 65
-10 21 -4 89 -13 170 -22 28 -3 66 -7 85 -9 230 -26 869 -26 1015 1 10 2 49 6
85 9 36 4 72 8 80 10 14 4 41 8 135 19 17 2 57 9 90 15 33 6 74 14 90 17 17 3
71 14 120 25 50 12 98 22 107 24 69 14 376 105 423 124 11 5 85 35 165 66 428
170 766 387 1074 691 34 34 132 144 159 179 4 5 21 28 38 50 179 232 320 548
364 815 3 19 7 46 10 60 21 111 21 358 1 500 -27 184 -91 394 -158 515 -7 11
-19 33 -27 50 -9 16 -19 32 -22 35 -3 3 -8 12 -11 21 -3 8 -40 60 -81 115 -84
110 -189 221 -287 304 -35 30 -70 60 -76 65 -6 6 -21 17 -34 25 -12 8 -44 32
-72 53 -142 105 -467 280 -688 369 -104 42 -276 102 -450 156 -77 24 -450 118
-500 126 -43 7 -74 13 -165 31 -38 8 -92 17 -120 20 -27 4 -57 8 -65 10 -8 2
-40 7 -70 10 -30 4 -75 11 -100 15 -57 11 -1463 11 -1510 0z"/>
<path d="M4468 19285 c-1 -1 -75 -5 -163 -8 -151 -5 -267 -20 -420 -51 -196
-40 -528 -150 -733 -242 -206 -93 -507 -252 -642 -339 -25 -16 -55 -35 -67
-41 -43 -24 -319 -220 -393 -279 -41 -33 -84 -67 -96 -75 -20 -14 -98 -80
-194 -165 -59 -52 -353 -346 -411 -411 -197 -220 -433 -541 -576 -784 -54 -91
-183 -326 -183 -333 0 -3 -27 -62 -60 -131 -33 -70 -60 -129 -60 -132 0 -3 -6
-20 -14 -37 -7 -18 -26 -63 -41 -102 -15 -38 -31 -79 -36 -90 -28 -67 -140
-425 -154 -493 -2 -9 -12 -55 -24 -102 -26 -111 -42 -179 -46 -210 -6 -35 -24
-140 -30 -170 -9 -45 -21 -135 -30 -215 -3 -27 -7 -66 -10 -85 -3 -19 -7 -53
-9 -75 -27 -222 -27 -832 -2 -1040 2 -16 7 -61 10 -100 6 -62 22 -175 32 -230
2 -11 7 -40 10 -65 6 -44 21 -118 50 -250 9 -36 17 -75 20 -87 14 -67 100
-349 143 -464 169 -458 417 -907 689 -1246 17 -21 52 -65 78 -98 156 -196 462
-503 659 -661 33 -27 62 -51 65 -54 3 -4 59 -47 125 -97 599 -450 1270 -766
1940 -913 85 -18 124 -19 740 -16 358 1 668 6 690 10 22 5 117 21 210 36 94
16 181 31 195 34 14 3 59 13 100 21 276 59 666 179 846 261 29 13 55 24 58 24
14 0 229 107 341 170 252 141 434 278 625 469 216 217 362 429 482 696 88 198
164 492 183 710 4 44 9 89 11 100 6 28 5 351 -1 400 -19 163 -78 375 -143 515
-141 303 -412 595 -762 822 -251 162 -605 329 -900 423 -47 15 -101 33 -120
40 -19 8 -62 21 -95 30 -33 10 -80 23 -105 31 -143 42 -592 142 -760 169 -19
3 -46 7 -60 10 -14 2 -43 7 -65 10 -23 3 -51 7 -62 10 -12 2 -65 9 -118 16
-52 8 -95 16 -95 19 0 4 6 7 13 7 18 0 139 15 161 19 11 2 42 6 69 9 28 3 53
8 56 9 3 2 31 7 61 11 30 3 134 22 230 41 96 19 184 36 195 38 54 11 431 108
505 130 817 250 1382 605 1711 1076 113 161 219 404 255 585 55 276 48 557
-21 850 -100 421 -350 803 -730 1114 -55 45 -104 85 -110 89 -5 4 -34 25 -64
46 -54 40 -220 146 -227 146 -3 0 -21 11 -42 23 -20 13 -76 45 -123 70 -73 38
-134 67 -334 157 -58 26 -265 102 -375 138 -240 79 -482 141 -722 186 -73 14
-144 28 -158 30 -24 6 -56 10 -142 22 -24 3 -86 11 -138 19 -52 7 -138 17
-190 20 -52 4 -98 9 -101 11 -4 2 -89 6 -190 9 -101 4 -189 8 -196 10 -6 2
-13 2 -15 0z"/>
<path d="M26759 19286 c-2 -2 -50 -6 -105 -10 -56 -3 -108 -8 -115 -11 -8 -2
-32 -6 -54 -9 -192 -21 -485 -136 -710 -279 -188 -118 -306 -216 -505 -416
-137 -138 -188 -194 -274 -301 -19 -25 -44 -54 -54 -65 -9 -11 -28 -36 -42
-55 -13 -19 -28 -39 -33 -45 -52 -64 -316 -455 -348 -517 -8 -15 -40 -70 -71
-123 -32 -53 -58 -98 -58 -101 0 -2 -11 -21 -23 -42 -57 -90 -354 -677 -362
-712 0 -3 -6 -14 -12 -25 -6 -11 -34 -74 -63 -140 -29 -66 -60 -138 -70 -160
-76 -171 -259 -629 -320 -800 -73 -207 -135 -379 -172 -480 -21 -60 -43 -123
-47 -140 -9 -32 -127 -396 -166 -510 -20 -60 -109 -352 -120 -395 -5 -19 -83
-284 -96 -325 -13 -41 -60 -215 -65 -240 -5 -27 -9 -47 -29 -140 -9 -44 -19
-98 -21 -120 -3 -22 -6 -45 -9 -52 -2 -6 -7 -38 -10 -70 -3 -32 -8 -67 -10
-78 -26 -130 -26 -775 0 -925 2 -14 6 -47 9 -74 4 -27 13 -90 22 -140 8 -50
17 -104 20 -121 7 -44 54 -255 64 -290 5 -16 16 -57 26 -90 35 -128 113 -351
149 -430 7 -16 25 -59 40 -95 94 -226 320 -592 468 -758 264 -295 512 -471
812 -578 l80 -29 375 0 375 0 70 29 c202 82 314 153 477 306 310 289 591 820
774 1460 19 69 40 136 44 150 5 14 12 36 14 50 3 14 12 52 20 85 8 33 18 74
22 90 4 17 8 35 10 40 2 6 16 72 32 147 16 76 32 141 35 145 4 3 7 -14 8 -38
2 -70 7 -135 24 -269 9 -69 18 -145 21 -170 8 -83 65 -364 100 -497 38 -145
109 -369 122 -387 5 -6 17 -33 27 -60 54 -146 184 -374 290 -507 235 -294 507
-470 880 -568 25 -7 204 -11 486 -11 416 0 451 1 525 20 284 73 499 194 695
389 116 117 185 206 277 361 83 140 198 426 237 590 2 8 4 15 5 15 1 0 3 7 5
15 1 8 10 42 19 75 17 66 44 191 52 244 3 18 7 43 10 55 7 35 33 218 38 271 6
53 15 124 22 164 15 100 19 394 19 1436 0 655 -4 1233 -8 1285 -5 52 -10 118
-12 145 -4 49 -15 174 -20 225 -1 14 -6 57 -9 95 -4 39 -9 84 -11 100 -6 52
-16 129 -20 160 -3 17 -9 66 -15 110 -6 44 -12 91 -15 105 -4 22 -10 61 -31
195 -3 22 -19 108 -36 190 -16 83 -31 161 -34 175 -5 27 -41 180 -51 220 -3
14 -7 30 -9 37 -32 155 -194 667 -263 828 -5 11 -23 56 -41 100 -91 221 -236
500 -362 698 -65 101 -159 237 -183 263 -5 6 -21 26 -35 44 -91 123 -322 364
-465 487 -441 379 -1057 655 -1650 738 -22 3 -47 8 -55 10 -26 7 -72 13 -150
20 -41 3 -82 8 -90 10 -8 2 -69 7 -135 10 -66 4 -122 8 -126 11 -3 2 -8 2 -10
0z m176 -4130 c17 -3 39 -7 50 -9 131 -23 281 -96 365 -179 138 -134 201 -323
194 -590 -3 -137 -8 -177 -36 -273 -61 -210 -195 -351 -413 -431 -69 -25 -167
-36 -270 -30 -116 7 -171 17 -240 44 -191 75 -315 195 -376 362 -21 57 -24 82
-24 205 0 161 7 214 40 343 46 174 128 317 242 423 63 58 174 122 239 138 38
10 169 8 229 -3z"/>
<path d="M18890 19276 c-3 -2 -59 -6 -125 -10 -66 -3 -129 -7 -140 -10 -11 -2
-51 -7 -90 -11 -38 -3 -86 -8 -105 -11 -19 -3 -51 -7 -70 -10 -92 -12 -336
-58 -430 -80 -58 -14 -116 -28 -130 -30 -97 -19 -560 -171 -665 -218 -16 -8
-59 -26 -95 -41 -91 -38 -296 -142 -415 -210 -500 -287 -903 -680 -1140 -1110
-53 -98 -68 -128 -120 -250 -41 -97 -108 -323 -131 -440 -4 -22 -8 -44 -10
-50 -9 -32 -63 -371 -69 -430 -4 -38 -9 -81 -11 -95 -9 -46 -12 -404 -4 -465
5 -33 10 -80 13 -105 6 -50 9 -64 33 -165 96 -408 384 -676 797 -740 138 -22
377 -27 507 -11 80 10 123 16 145 20 11 2 40 7 65 10 108 17 388 81 460 106
14 4 66 20 115 35 50 15 123 38 163 52 40 14 75 24 77 21 2 -2 -34 -107 -81
-233 -131 -356 -437 -1245 -427 -1245 2 0 -1 -9 -7 -21 -10 -17 -52 -147 -64
-199 -2 -8 -18 -62 -36 -120 -73 -240 -170 -599 -187 -690 -2 -14 -9 -45 -14
-70 -6 -25 -13 -56 -15 -70 -3 -14 -11 -52 -19 -85 -20 -92 -53 -310 -61 -410
-12 -142 -6 -296 16 -440 5 -33 11 -78 15 -100 48 -326 224 -789 412 -1084 47
-74 153 -223 168 -236 6 -5 18 -21 27 -33 25 -36 146 -160 224 -228 178 -158
398 -280 626 -349 l86 -26 409 4 c224 1 419 6 432 10 89 25 198 64 266 95 75
34 214 109 225 121 3 3 32 24 64 46 33 22 64 44 70 50 6 5 39 34 73 62 75 65
163 156 239 248 49 61 88 117 190 275 40 61 124 231 171 345 184 445 254 932
197 1376 -5 43 -39 251 -49 299 -37 187 -65 309 -125 535 -12 44 -23 89 -26
101 -2 12 -38 135 -79 274 -131 440 -341 1057 -539 1581 -46 121 -82 219 -80
219 1 0 67 -23 146 -50 150 -53 395 -132 488 -157 30 -8 62 -17 70 -19 98 -27
370 -94 401 -98 22 -3 43 -7 47 -10 7 -4 66 -15 112 -21 23 -3 45 -7 105 -19
12 -2 50 -7 85 -11 36 -3 79 -9 95 -11 78 -13 494 -12 585 1 459 66 743 244
932 585 49 89 119 288 134 379 2 14 6 35 9 46 2 11 7 43 10 70 4 28 9 61 12
75 9 42 11 470 3 550 -5 41 -11 103 -15 138 -3 35 -8 73 -11 85 -2 12 -6 47
-10 77 -3 30 -9 71 -14 90 -5 19 -12 55 -15 80 -3 25 -8 52 -10 60 -2 8 -7 29
-9 45 -33 192 -128 467 -235 680 -68 134 -199 346 -248 400 -10 11 -40 47 -66
80 -63 78 -183 202 -278 288 -350 315 -834 572 -1364 725 -38 11 -95 28 -125
36 -52 15 -253 58 -330 71 -19 3 -71 12 -115 20 -44 8 -109 17 -145 21 -36 3
-73 8 -82 9 -9 2 -48 7 -85 11 -37 3 -79 8 -93 10 -36 6 -705 16 -710 10z"/>
<path d="M12180 15972 c-412 -32 -820 -271 -1155 -677 -28 -33 -52 -62 -55
-65 -16 -14 -131 -183 -206 -300 -84 -132 -240 -447 -304 -615 -13 -33 -29
-73 -35 -90 -17 -39 -106 -314 -111 -340 -2 -11 -8 -31 -13 -45 -10 -24 -55
-200 -65 -251 -2 -13 -11 -56 -20 -94 -8 -39 -17 -82 -19 -95 -15 -81 -27
-150 -32 -185 -4 -22 -8 -51 -10 -64 -2 -13 -7 -45 -11 -70 -3 -25 -7 -56 -9
-68 -2 -12 -7 -61 -10 -110 -4 -48 -9 -97 -11 -108 -27 -136 -25 -907 2 -1145
3 -25 7 -63 9 -85 14 -126 17 -155 25 -205 5 -30 12 -75 15 -100 3 -25 15 -88
26 -140 11 -52 22 -102 24 -110 39 -185 122 -419 211 -600 258 -523 664 -858
1204 -995 98 -25 102 -25 547 -25 504 0 497 -1 713 86 176 70 427 212 515 291
11 10 40 34 65 54 37 30 158 149 230 228 37 40 143 187 195 272 129 207 262
539 309 769 3 14 10 44 16 68 5 23 13 59 15 80 3 20 10 60 15 87 5 28 12 77
16 110 3 33 8 62 9 65 2 3 6 50 10 105 3 55 8 120 10 145 13 135 0 637 -20
800 -2 19 -7 67 -10 105 -3 39 -8 84 -10 100 -3 17 -7 53 -10 80 -3 28 -7 57
-10 65 -2 8 -6 38 -9 66 -6 61 -32 212 -52 314 -9 41 -17 84 -20 95 -2 11 -6
34 -10 50 -9 47 -94 387 -105 420 -5 17 -23 75 -40 130 -264 854 -697 1524
-1171 1813 -107 65 -231 122 -298 137 -3 1 -24 7 -46 13 -51 15 -90 21 -174
28 -36 3 -72 6 -80 7 -8 1 -31 1 -50 -1z"/>
</g>
</svg>
