<svg class="logo logo--rect" xmlns="http://www.w3.org/2000/svg" width="750" height="750" viewBox="0 0 750 750">
  <g fill="none" fill-rule="evenodd">
    <g class="logo__letter logo__letter--A" transform="translate(0 1)">
      <polygon fill="#F44A4A" points="186.5 187 559.5 561 -186.5 561" transform="rotate(90 186.5 374)"/>
      <g stroke="#FFF" stroke-linecap="round" stroke-linejoin="round" transform="translate(99.467 325.13)">
        <path stroke-width="10" d="M1.49276091 98.4639415C1.49276091 78.0868151-.320521596 57.6679444 1.49276091 37.3325623 5-2 34-14 47 22 55.4172187 45.3092211 54 82.927883 52 98.4639415M2 57.2059231C27.3922631 57.2059231 48.0057526 53.0003014 72.5574704 46"/>
      </g>
    </g>
    <g class="logo__letter logo__letter--T" transform="translate(1 377)">
      <polygon fill="#F44A4A" points="374 0 748 373 0 373"/>
      <g stroke="#FFF" stroke-linecap="round" stroke-linejoin="round" transform="translate(337.099 172.077)">
        <path stroke-width="10" d="M0 7.77071844C25.4578391 6.29664849 49.2348144.455784352 74.9316406 0M38.6113281 3.96078431C38.4075521 35.9822815 38.203776 68.0037786 38 100.025276"/>
      </g>
    </g>
    <g class="logo__letter logo__letter--i" transform="translate(377 1)">
      <polygon fill="#F44A4A" points="186.5 187 559.5 561 -186.5 561" transform="rotate(-90 186.5 374)"/>
      <g stroke="#FFF" stroke-linecap="round" stroke-linejoin="round" transform="translate(210.87 295.21)">
        <path stroke-width="10" d="M38 76C38.7695312 103.367839 39.5390625 130.735677 40.3085938 158.103516M14.6691203 21.6314855C11.2934692 24.7532303 7.13886718 27.2023214 4.54216713 30.9967199-15.3687071 60.0912585 35.6020398 74.480423 52.8312296 55.4029699 75.9416736 29.8133503 56.5420916-9.4433853 22.0343546 2.06117298 15.2238395 4.33173533 8.67389269 12.3935667 4.06560463 17.1783605"/>
      </g>
    </g>
    <g class="logo__letter logo__letter--C" transform="translate(1)">
      <polygon fill="#F44A4A" points="374 0 748 373 0 373" transform="matrix(1 0 0 -1 0 373)"/>
      <path stroke="#FFF" stroke-linecap="round" stroke-linejoin="round" stroke-width="10" d="M59.4679697,9.03242696 C43.8489529,-10.0307152 21.2786605,4.52923769 10.5469547,20.9609144 C0.653547021,36.1090445 -4.20605885,55.8905587 4.60225845,72.4734503 C18.2646506,98.1948178 48.1893242,99.9238898 67,77.1789474" transform="translate(341.088 99.467)"/>
    </g>
  </g>
</svg>
