<svg width="1336" height="799" viewBox="0 0 1336 799" fill="none" xmlns="http://www.w3.org/2000/svg">
<mask id="path-1-inside-1_7_24" fill="white">
<path d="M312 0H1336V599H312V0Z"/>
</mask>
<path d="M312 0H1336V599H312V0Z" fill="#D9D9D9"/>
<path d="M1336 599V549H312V599V649H1336V599Z" fill="black" mask="url(#path-1-inside-1_7_24)"/>
<path d="M624 479C624 434.817 659.817 399 704 399H944C988.183 399 1024 434.817 1024 479V799H624V479Z" fill="#2A2828"/>
<path d="M574 499C574 443.772 618.772 399 674 399H974C1029.23 399 1074 443.772 1074 499V689H574V499Z" fill="#2A2828"/>
<rect x="704" y="169" width="240" height="240" rx="120" fill="#615353"/>
<path d="M0 499C0 443.772 44.7715 399 100 399H300C355.228 399 400 443.772 400 499V799H0V499Z" fill="#2A2828"/>
<rect x="80" y="169" width="240" height="452" rx="120" fill="#615353"/>
</svg>
