<svg width="24" height="24" viewBox="0 0 24 24" fill="none" xmlns="http://www.w3.org/2000/svg">
<path d="M6 9.33C6.55228 9.33 7 8.88228 7 8.33C7 7.77772 6.55228 7.33 6 7.33C5.44772 7.33 5 7.77772 5 8.33C5 8.88228 5.44772 9.33 6 9.33Z" fill="currentColor"/>
<path d="M10 8.33C10 8.88228 9.55228 9.33 9 9.33C8.44772 9.33 8 8.88228 8 8.33C8 7.77772 8.44772 7.33 9 7.33C9.55228 7.33 10 7.77772 10 8.33Z" fill="currentColor"/>
<path d="M12 9.33C12.5523 9.33 13 8.88228 13 8.33C13 7.77772 12.5523 7.33 12 7.33C11.4477 7.33 11 7.77772 11 8.33C11 8.88228 11.4477 9.33 12 9.33Z" fill="currentColor"/>
<path d="M4.5 5.5H19.5C20.6046 5.5 21.5 6.39543 21.5 7.5V17.5C21.5 18.6046 20.6046 19.5 19.5 19.5H4.5C3.39543 19.5 2.5 18.6046 2.5 17.5V7.5C2.5 6.39543 3.39543 5.5 4.5 5.5ZM3.16699 17.5C3.16699 18.2364 3.76363 18.833 4.5 18.833H19.5C20.2364 18.833 20.833 18.2364 20.833 17.5V11.167H3.16699V17.5ZM4.5 6.16699C3.76362 6.16699 3.16699 6.76362 3.16699 7.5V10.5H20.833V7.5C20.833 6.76363 20.2364 6.16699 19.5 6.16699H4.5Z" stroke="currentColor"/>
</svg>
