<svg width="210" height="78" viewBox="0 0 210 78" fill="none" xmlns="http://www.w3.org/2000/svg">
<path d="M159.854 77.2001C155.387 77.2001 151.787 75.0334 149.054 70.7001C146.387 66.3001 144.821 60.3668 144.354 52.9001C144.287 51.8334 144.254 50.2668 144.254 48.2001C144.254 40.1334 145.587 33.0001 148.254 26.8001C150.921 20.5334 154.687 15.7001 159.554 12.3001C164.487 8.83343 170.221 7.1001 176.754 7.1001C183.287 7.1001 188.987 8.83343 193.854 12.3001C198.787 15.7001 202.554 20.5001 205.154 26.7001C207.821 32.9001 209.154 40.0668 209.154 48.2001C209.154 50.2668 209.121 51.8334 209.054 52.9001C208.587 60.5001 207.021 66.4334 204.354 70.7001C201.687 74.9668 198.087 77.1001 193.554 77.1001C189.887 77.1001 187.321 76.1001 185.854 74.1001C184.454 72.1001 183.754 69.6668 183.754 66.8001C183.754 65.4668 183.854 64.3001 184.054 63.3001C180.587 63.4334 177.521 63.5001 174.854 63.5001C173.187 63.5001 171.354 63.4334 169.354 63.3001C169.554 64.3001 169.654 65.4668 169.654 66.8001C169.654 69.7334 168.921 72.2001 167.454 74.2001C166.054 76.2001 163.521 77.2001 159.854 77.2001ZM168.654 45.5001C172.254 45.3668 174.887 45.3001 176.554 45.3001C178.354 45.3001 180.987 45.3668 184.454 45.5001C184.587 44.7668 184.654 43.6668 184.654 42.2001C184.654 39.0668 183.987 36.5334 182.654 34.6001C181.321 32.6001 179.254 31.6001 176.454 31.6001C173.721 31.6001 171.687 32.5668 170.354 34.5001C169.021 36.4334 168.354 38.9334 168.354 42.0001C168.354 43.1334 168.454 44.3001 168.654 45.5001Z" fill="url(#paint0_linear_1664_158)"/>
<path d="M153.954 21.9001C153.954 26.3001 152.121 29.5001 148.454 31.5001C144.854 33.4334 138.954 34.6001 130.754 35.0001C131.021 38.2001 131.154 42.3334 131.154 47.4001C131.154 54.4667 130.754 60.1334 129.954 64.4001C129.221 68.6001 127.921 71.7334 126.054 73.8001C124.187 75.8001 121.587 76.8001 118.254 76.8001C114.987 76.8001 112.487 75.7334 110.754 73.6001C109.021 71.4667 107.821 68.3001 107.154 64.1001C106.487 59.9001 106.154 54.3334 106.154 47.4001C106.154 42.7334 106.254 38.6001 106.454 35.0001C100.921 34.7334 96.4539 34.1667 93.0539 33.3001C89.7206 32.3667 87.2539 31 85.6539 29.2C84.0539 27.4 83.2539 24.9667 83.2539 21.9001C83.2539 18.1667 84.5206 15.2334 87.0539 13.1C89.5872 10.9667 93.3873 9.46672 98.4539 8.60005C103.521 7.73338 110.154 7.30005 118.354 7.30005C126.621 7.30005 133.321 7.73338 138.454 8.60005C143.587 9.46672 147.454 10.9667 150.054 13.1C152.654 15.2334 153.954 18.1667 153.954 21.9001Z" fill="url(#paint1_linear_1664_158)"/>
<path d="M70.9539 76.8001C68.2206 76.8001 66.1873 76.0334 64.8539 74.5001C63.5873 72.9001 62.7206 70.5334 62.2539 67.4001C61.8539 64.2001 61.6539 59.6668 61.6539 53.8001C61.6539 48.8668 61.8873 44.9668 62.3539 42.1001C62.8873 39.2334 63.8206 37.1001 65.1539 35.7001C66.4873 34.3001 68.4206 33.6001 70.9539 33.6001C73.6873 33.6001 75.6873 34.4001 76.9539 36.0001C78.2873 37.5334 79.1539 39.9001 79.5539 43.1001C80.0206 46.2334 80.2539 50.7334 80.2539 56.6001C80.2539 61.5334 79.9873 65.4334 79.4539 68.3001C78.9873 71.1668 78.0873 73.3001 76.7539 74.7001C75.4206 76.1001 73.4873 76.8001 70.9539 76.8001Z" fill="url(#paint2_linear_1664_158)"/>
<path d="M60.8163 27.9111C63.8579 31.0422 67.5704 32.6077 71.9539 32.6077C76.2479 32.6077 79.9157 31.0422 82.9573 27.9111C86.0884 24.6906 87.6539 20.7992 87.6539 16.2368C87.6539 11.7638 86.0884 7.96183 82.9573 4.83077C79.9157 1.61026 76.2479 0 71.9539 0C67.5704 0 63.8579 1.61026 60.8163 4.83077C57.7747 7.96183 56.2539 11.7638 56.2539 16.2368C56.2539 20.7992 57.7747 24.6906 60.8163 27.9111Z" fill="url(#paint3_linear_1664_158)"/>
<path d="M34.3 76.8C27.7667 76.8 21.9 75.5 16.7 72.9C11.5667 70.2333 7.5 66.3 4.5 61.1C1.5 55.8333 0 49.4 0 41.8C0 35.6667 1.40001 29.9333 4.20001 24.6C7.00001 19.2667 10.8667 15 15.8 11.8C20.7333 8.6 26.2667 7 32.4 7C38.2 7 43.3667 8.1 47.9 10.3C52.4333 12.4333 55.9333 15.3667 58.4 19.1C60.9333 22.8333 62.2 27 62.2 31.6C62.2 34.5333 61.3333 37.0667 59.6 39.2C57.9333 41.3333 55.5333 42.4 52.4 42.4C50.0667 42.4 48.2667 42 47 41.2C45.7333 40.4 44.4 39.1667 43 37.5C41.6 35.8333 40.2333 34.6 38.9 33.8C37.6333 32.9333 35.7667 32.5 33.3 32.5C30.1667 32.5 27.4667 33.7 25.2 36.1C23 38.4333 21.9 41.3 21.9 44.7C21.9 48.3667 22.8333 51.4667 24.7 54C26.6333 56.4667 29.2333 57.7 32.5 57.7C35.0333 57.7 37.0333 57.3333 38.5 56.6C40.0333 55.8667 41.6334 54.8 43.3 53.4C44.7 52.2 45.9667 51.3 47.1 50.7C48.3 50.1 49.7667 49.8 51.5 49.8C54.1667 49.8 56.2667 50.6333 57.8 52.3C59.3334 53.9 60.1 56 60.1 58.6C60.1 61.6667 58.9667 64.6 56.7 67.4C54.5 70.2 51.4333 72.4667 47.5 74.2C43.5667 75.9333 39.1667 76.8 34.3 76.8Z" fill="url(#paint4_linear_1664_158)"/>
<defs>
<linearGradient id="paint0_linear_1664_158" x1="176.704" y1="7.1001" x2="187.77" y2="75.26" gradientUnits="userSpaceOnUse">
<stop stop-color="#F0FFFF"/>
<stop offset="1" stop-color="#005C5C"/>
</linearGradient>
<linearGradient id="paint1_linear_1664_158" x1="118.604" y1="7.30005" x2="128.633" y2="75.1759" gradientUnits="userSpaceOnUse">
<stop stop-color="#F0FFFF"/>
<stop offset="1" stop-color="#005C5C"/>
</linearGradient>
<linearGradient id="paint2_linear_1664_158" x1="70.9539" y1="33.6001" x2="84.3696" y2="72.0281" gradientUnits="userSpaceOnUse">
<stop stop-color="#F0FFFF"/>
<stop offset="1" stop-color="#005C5C"/>
</linearGradient>
<linearGradient id="paint3_linear_1664_158" x1="71.9539" y1="0" x2="76.9125" y2="31.767" gradientUnits="userSpaceOnUse">
<stop stop-color="#8AFFFF"/>
<stop offset="1" stop-color="#005C5C"/>
</linearGradient>
<linearGradient id="paint4_linear_1664_158" x1="31.1" y1="7" x2="42.5246" y2="74.7301" gradientUnits="userSpaceOnUse">
<stop stop-color="#F0FFFF"/>
<stop offset="1" stop-color="#005C5C"/>
</linearGradient>
</defs>
</svg>
