<svg xmlns="http://www.w3.org/2000/svg" version="1.1" xmlns:xlink="http://www.w3.org/1999/xlink" width="1000" height="1000"><g clip-path="url(#SvgjsClipPath1168)"><rect width="1000" height="1000" fill="#ffffff"></rect><g transform="matrix(4.166666666666667,0,0,4.166666666666667,-5.684341886080802e-14,-5.684341886080802e-14)"><svg xmlns="http://www.w3.org/2000/svg" version="1.1" xmlns:xlink="http://www.w3.org/1999/xlink" width="240" height="240"><svg width="240" height="240" viewBox="0 0 240 240" fill="none" xmlns="http://www.w3.org/2000/svg">
<path d="M174.854 158.2C170.387 158.2 166.787 156.033 164.054 151.7C161.387 147.3 159.821 141.367 159.354 133.9C159.287 132.833 159.254 131.267 159.254 129.2C159.254 121.133 160.587 114 163.254 107.8C165.921 101.533 169.687 96.7001 174.554 93.3001C179.487 89.8334 185.221 88.1001 191.754 88.1001C198.287 88.1001 203.987 89.8334 208.854 93.3001C213.787 96.7001 217.554 101.5 220.154 107.7C222.821 113.9 224.154 121.067 224.154 129.2C224.154 131.267 224.121 132.833 224.054 133.9C223.587 141.5 222.021 147.433 219.354 151.7C216.687 155.967 213.087 158.1 208.554 158.1C204.887 158.1 202.321 157.1 200.854 155.1C199.454 153.1 198.754 150.667 198.754 147.8C198.754 146.467 198.854 145.3 199.054 144.3C195.587 144.433 192.521 144.5 189.854 144.5C188.187 144.5 186.354 144.433 184.354 144.3C184.554 145.3 184.654 146.467 184.654 147.8C184.654 150.733 183.921 153.2 182.454 155.2C181.054 157.2 178.521 158.2 174.854 158.2ZM183.654 126.5C187.254 126.367 189.887 126.3 191.554 126.3C193.354 126.3 195.987 126.367 199.454 126.5C199.587 125.767 199.654 124.667 199.654 123.2C199.654 120.067 198.987 117.533 197.654 115.6C196.321 113.6 194.254 112.6 191.454 112.6C188.721 112.6 186.687 113.567 185.354 115.5C184.021 117.433 183.354 119.933 183.354 123C183.354 124.133 183.454 125.3 183.654 126.5Z" fill="url(#paint0_linear_1669_301)"></path>
<path d="M168.954 102.9C168.954 107.3 167.121 110.5 163.454 112.5C159.854 114.433 153.954 115.6 145.754 116C146.021 119.2 146.154 123.333 146.154 128.4C146.154 135.467 145.754 141.133 144.954 145.4C144.221 149.6 142.921 152.733 141.054 154.8C139.187 156.8 136.587 157.8 133.254 157.8C129.987 157.8 127.487 156.733 125.754 154.6C124.021 152.467 122.821 149.3 122.154 145.1C121.487 140.9 121.154 135.333 121.154 128.4C121.154 123.733 121.254 119.6 121.454 116C115.921 115.733 111.454 115.167 108.054 114.3C104.721 113.367 102.254 112 100.654 110.2C99.0539 108.4 98.2539 105.967 98.2539 102.9C98.2539 99.1667 99.5206 96.2334 102.054 94.1C104.587 91.9667 108.387 90.4667 113.454 89.6C118.521 88.7334 125.154 88.3 133.354 88.3C141.621 88.3 148.321 88.7334 153.454 89.6C158.587 90.4667 162.454 91.9667 165.054 94.1C167.654 96.2334 168.954 99.1667 168.954 102.9Z" fill="url(#paint1_linear_1669_301)"></path>
<path d="M85.9539 157.8C83.2206 157.8 81.1873 157.033 79.8539 155.5C78.5873 153.9 77.7206 151.533 77.2539 148.4C76.8539 145.2 76.6539 140.667 76.6539 134.8C76.6539 129.867 76.8873 125.967 77.3539 123.1C77.8873 120.233 78.8206 118.1 80.1539 116.7C81.4873 115.3 83.4206 114.6 85.9539 114.6C88.6873 114.6 90.6873 115.4 91.9539 117C93.2873 118.533 94.1539 120.9 94.5539 124.1C95.0206 127.233 95.2539 131.733 95.2539 137.6C95.2539 142.533 94.9873 146.433 94.4539 149.3C93.9873 152.167 93.0873 154.3 91.7539 155.7C90.4206 157.1 88.4873 157.8 85.9539 157.8Z" fill="url(#paint2_linear_1669_301)"></path>
<path d="M75.8163 108.911C78.8579 112.042 82.5704 113.608 86.9539 113.608C91.2479 113.608 94.9157 112.042 97.9573 108.911C101.088 105.691 102.654 101.799 102.654 97.2368C102.654 92.7638 101.088 88.9618 97.9573 85.8308C94.9157 82.6103 91.2479 81 86.9539 81C82.5704 81 78.8579 82.6103 75.8163 85.8308C72.7747 88.9618 71.2539 92.7638 71.2539 97.2368C71.2539 101.799 72.7747 105.691 75.8163 108.911Z" fill="url(#paint3_linear_1669_301)"></path>
<path d="M49.3 157.8C42.7667 157.8 36.9 156.5 31.7 153.9C26.5667 151.233 22.5 147.3 19.5 142.1C16.5 136.833 15 130.4 15 122.8C15 116.667 16.4 110.933 19.2 105.6C22 100.267 25.8667 96 30.8 92.8C35.7333 89.6 41.2667 88 47.4 88C53.2 88 58.3667 89.1 62.9 91.3C67.4333 93.4333 70.9333 96.3667 73.4 100.1C75.9333 103.833 77.2 108 77.2 112.6C77.2 115.533 76.3333 118.067 74.6 120.2C72.9333 122.333 70.5333 123.4 67.4 123.4C65.0667 123.4 63.2667 123 62 122.2C60.7333 121.4 59.4 120.167 58 118.5C56.6 116.833 55.2333 115.6 53.9 114.8C52.6333 113.933 50.7667 113.5 48.3 113.5C45.1667 113.5 42.4667 114.7 40.2 117.1C38 119.433 36.9 122.3 36.9 125.7C36.9 129.367 37.8333 132.467 39.7 135C41.6333 137.467 44.2333 138.7 47.5 138.7C50.0333 138.7 52.0333 138.333 53.5 137.6C55.0333 136.867 56.6334 135.8 58.3 134.4C59.7 133.2 60.9667 132.3 62.1 131.7C63.3 131.1 64.7667 130.8 66.5 130.8C69.1667 130.8 71.2667 131.633 72.8 133.3C74.3334 134.9 75.1 137 75.1 139.6C75.1 142.667 73.9667 145.6 71.7 148.4C69.5 151.2 66.4333 153.467 62.5 155.2C58.5667 156.933 54.1667 157.8 49.3 157.8Z" fill="url(#paint4_linear_1669_301)"></path>
<defs>
<linearGradient id="paint0_linear_1669_301" x1="191.704" y1="88.1001" x2="202.77" y2="156.26" gradientUnits="userSpaceOnUse">
<stop stop-color="#9370D8"></stop>
<stop offset="1" stop-color="#110920"></stop>
</linearGradient>
<linearGradient id="paint1_linear_1669_301" x1="133.604" y1="88.3" x2="143.633" y2="156.176" gradientUnits="userSpaceOnUse">
<stop stop-color="#9370D8"></stop>
<stop offset="1" stop-color="#110920"></stop>
</linearGradient>
<linearGradient id="paint2_linear_1669_301" x1="85.9539" y1="114.6" x2="99.3696" y2="153.028" gradientUnits="userSpaceOnUse">
<stop stop-color="#9370D8"></stop>
<stop offset="1" stop-color="#110920"></stop>
</linearGradient>
<linearGradient id="paint3_linear_1669_301" x1="86.9539" y1="81" x2="91.9125" y2="112.767" gradientUnits="userSpaceOnUse">
<stop stop-color="#472588"></stop>
<stop offset="1" stop-color="#110920"></stop>
</linearGradient>
<linearGradient id="paint4_linear_1669_301" x1="46.1" y1="88" x2="57.5246" y2="155.73" gradientUnits="userSpaceOnUse">
<stop stop-color="#9370D8"></stop>
<stop offset="1" stop-color="#110920"></stop>
</linearGradient>
<clipPath id="SvgjsClipPath1168"><rect width="1000" height="1000" x="0" y="0" rx="500" ry="500"></rect></clipPath></defs>
</svg></svg></g></g></svg>