<svg width="552" height="650" viewBox="0 0 552 650" fill="none" xmlns="http://www.w3.org/2000/svg">
<path d="M289.227 75.001C291.526 74.9479 293.868 75.2128 296.196 75.8291L296.817 76.0029L393.697 104.294C411.209 89.6844 437.289 90.4232 453.946 106.711C471.716 124.086 472.036 152.577 454.66 170.347L329.905 297.932C336.282 303.385 342.315 309.229 347.96 315.433L427.961 306.197L428.731 306.119C429.777 306.025 430.815 305.987 431.843 306.001C448.362 305.913 461.853 319.203 461.999 335.735L463.999 562.735C464.145 579.303 450.832 592.853 434.265 592.999C417.697 593.145 404.147 579.832 404.001 563.265L402.294 369.559L384.072 371.662C394.324 395.72 400 422.197 400 450C400 560.457 310.457 650 200 650C89.5431 650 0 560.457 0 450C0 339.543 89.5431 250 200 250C216.226 250 232.001 251.933 247.106 255.58C248.867 252.668 250.987 249.91 253.469 247.372L353.824 144.739L296.636 128.038L209.505 217.946C199.896 227.861 184.069 228.108 174.154 218.5C164.24 208.891 163.991 193.063 173.6 183.148L271.042 82.6016C276.002 77.4832 282.621 74.9408 289.227 75.001ZM200 310C122.68 310 60 372.68 60 450C60 527.32 122.68 590 200 590C277.32 590 340 527.32 340 450C340 372.68 277.32 310 200 310ZM492 0C525.137 0 552 26.8629 552 60C552 93.1371 525.137 120 492 120C458.863 120 432 93.1371 432 60C432 26.8629 458.863 0 492 0Z" fill="url(#paint0_linear_11_104)"/>
<defs>
<linearGradient id="paint0_linear_11_104" x1="492.26" y1="71.4091" x2="-45.4586" y2="526.795" gradientUnits="userSpaceOnUse">
<stop stop-color="mediumpurple" stop-opacity="0.5"/>
<stop offset="1" stop-color="mediumpurple" stop-opacity="0"/>
</linearGradient>
</defs>
</svg>
