<svg width="311" height="310" viewBox="0 0 311 310" fill="none" xmlns="http://www.w3.org/2000/svg">
<path d="M173.501 6.10352e-05C249.439 0.000291939 311.001 61.5611 311.001 137.5C311 213.439 249.439 275 173.501 275C138.911 275 107.306 262.227 83.1411 241.142L17.2134 307.071L16.8404 307.426C12.9148 310.973 6.85403 310.855 3.07084 307.071C-0.712325 303.288 -0.830376 297.227 2.71634 293.302L3.07084 292.929L69.062 226.938C48.4523 202.894 36.0005 171.652 36.0005 137.5C36.0005 61.5609 97.5614 6.10352e-05 173.501 6.10352e-05ZM173.501 20.0001C108.607 20.0001 56.0005 72.6066 56.0005 137.5C56.0006 202.393 108.607 255 173.501 255C238.394 255 291 202.393 291.001 137.5C291.001 72.6067 238.394 20.0003 173.501 20.0001Z" fill="url(#paint0_linear_10_79)"/>
<defs>
<linearGradient id="paint0_linear_10_79" x1="277.358" y1="34.0567" x2="17.3578" y2="294.057" gradientUnits="userSpaceOnUse">
<stop stop-color="mediumpurple" stop-opacity="0.5"/>
<stop offset="1" stop-color="mediumpurple" stop-opacity="0"/>
</linearGradient>
</defs>
</svg>
